# xmcd
#
# Track frame offsets:
#	150
#	29645
#	62984
#	95863
#	144084
#
# Disc length: 2579 seconds
#
# Revision: 0
# Processed by: cddbd v1.5PL3 Copyright (c) Steve Scherf et al.
# Submitted via: dBpowerAMP V4.0
#
DISCID=460a1105
DTITLE=arabic - marac
DYEAR=1900
DGENRE=Acid
TTITLE0=20
TTITLE1=21
TTITLE2=22
TTITLE3=23
TTITLE4=24
EXTD=
EXTT0=
EXTT1=
EXTT2=
EXTT3=
EXTT4=
PLAYORDER=
